<svg width="24" height="24" viewBox="0 0 24 24" fill="none" xmlns="http://www.w3.org/2000/svg">
<path d="M12 2C6.47715 2 2 6.47715 2 12C2 17.5228 6.47715 22 12 22C17.5228 22 22 17.5228 22 12C22 6.47715 17.5228 2 12 2Z" fill="#E2761B"/>
<path d="M12 7.2C10.4497 7.2 9.2 8.44975 9.2 10C9.2 11.5503 10.4497 12.8 12 12.8C13.5503 12.8 14.8 11.5503 14.8 10C14.8 8.44975 13.5503 7.2 12 7.2Z" fill="#FFFFFF"/>
<path d="M12 14.8C10.4497 14.8 9.2 16.0503 9.2 17.6C9.2 19.1503 10.4497 20.4 12 20.4C13.5503 20.4 14.8 19.1503 14.8 17.6C14.8 16.0503 13.5503 14.8 12 14.8Z" fill="#FFFFFF"/>
<path d="M16.8 10C16.8 8.44975 15.5503 7.2 14 7.2C12.4497 7.2 11.2 8.44975 11.2 10C11.2 11.5503 12.4497 12.8 14 12.8C15.5503 12.8 16.8 11.5503 16.8 10Z" fill="#FFFFFF"/>
<path d="M7.2 10C7.2 8.44975 8.44975 7.2 10 7.2C11.5503 7.2 12.8 8.44975 12.8 10C12.8 11.5503 11.5503 12.8 10 12.8C8.44975 12.8 7.2 11.5503 7.2 10Z" fill="#FFFFFF"/>
</svg>