<svg width="24" height="24" viewBox="0 0 24 24" fill="none" xmlns="http://www.w3.org/2000/svg">
<path d="M12 0C5.37258 0 0 5.37258 0 12C0 18.6274 5.37258 24 12 24C18.6274 24 24 18.6274 24 12C24 5.37258 18.6274 0 12 0ZM12 4.8C14.6509 4.8 16.8 6.94909 16.8 9.6C16.8 12.2509 14.6509 14.4 12 14.4C9.34909 14.4 7.2 12.2509 7.2 9.6C7.2 6.94909 9.34909 4.8 12 4.8ZM12 16.8C15.9706 16.8 19.2 18.0094 19.2 19.2C19.2 20.3906 15.9706 21.6 12 21.6C8.02944 21.6 4.8 20.3906 4.8 19.2C4.8 18.0094 8.02944 16.8 12 16.8Z" fill="#3B99FC"/>
</svg>